├âΓäó├óΓé¼┬ª├â╦£├é┬»├â╦£├é┬¿├âΓäó├óΓé¼┼╛├â╦£├é┬¼ ├â╦£├é┬¿├â╦£├é┬º├âΓäó├óΓé¼┼╛├â╦£├é┬╣├â╦£├é┬▒├â╦£├é┬¿├âΓäó├à┬á

Format                           : Matroska
File size                        : 1.50 GiB
Duration                         : 1h 33mn
Overall bit rate                 : 2 304 Kbps
Encoded date                     : UTC 2010-11-30 15:57:12
Writing application              : mkvmerge v4.3.0 ('Escape from the Island') built on Sep  5 2010 10:30:51
Writing library                  : libebml v1.0.0 + libmatroska v1.0.0

Video
ID                               : 1
Format                           : AVC
Format/Info                      : Advanced Video Codec
Format profile                   : High@L4.1
Format settings, CABAC           : Yes
Format settings, ReFrames        : 4 frames
Muxing mode                      : Container profile=Unknown@4.1
Codec ID                         : V_MPEG4/ISO/AVC
Duration                         : 1h 33mn
Bit rate                         : 1 854 Kbps
Width                            : 720 pixels
Height                           : 304 pixels
Display aspect ratio             : 2.35:1
Frame rate                       : 23.976 fps
Color space                      : YUV
Chroma subsampling               : 4:2:0
Bit depth                        : 8 bits
Scan type                        : Progressive
Bits/(Pixel*Frame)               : 0.353
Stream size                      : 1.18 GiB (79%)
Writing library                  : x264 core 98 r1649 c54c47d

Audio
ID                               : 2
Format                           : AC-3
Format/Info                      : Audio Coding 3
Mode extension                   : CM (complete main)
Codec ID                         : A_AC3
Duration                         : 1h 33mn
Bit rate mode                    : Constant
Bit rate                         : 448 Kbps
Channel(s)                       : 6 channels
Channel positions                : Front: L C R, Side: L R, LFE
Sampling rate                    : 48.0 KHz
Stream size                      : 299 MiB (19%)

